<svg width="20" height="20" viewBox="0 0 20 20" fill="none" xmlns="http://www.w3.org/2000/svg">
<g clipPath="url(#clip0_12_1594)">
<path d="M9.99992 5.83327C11.768 5.83327 13.4637 6.53565 14.714 7.78589C15.9642 9.03614 16.6666 10.7318 16.6666 12.4999C16.6666 14.268 15.9642 15.9637 14.714 17.214C13.4637 18.4642 11.768 19.1666 9.99992 19.1666C8.23181 19.1666 6.53612 18.4642 5.28587 17.214C4.03563 15.9637 3.33325 14.268 3.33325 12.4999C3.33325 10.7318 4.03563 9.03614 5.28587 7.78589C6.53612 6.53565 8.23181 5.83327 9.99992 5.83327ZM9.99992 7.49994C8.67384 7.49994 7.40207 8.02672 6.46438 8.96441C5.5267 9.90209 4.99992 11.1739 4.99992 12.4999C4.99992 13.826 5.5267 15.0978 6.46438 16.0355C7.40207 16.9732 8.67384 17.4999 9.99992 17.4999C11.326 17.4999 12.5978 16.9732 13.5355 16.0355C14.4731 15.0978 14.9999 13.826 14.9999 12.4999C14.9999 11.1739 14.4731 9.90209 13.5355 8.96441C12.5978 8.02672 11.326 7.49994 9.99992 7.49994ZM9.99992 8.74994L11.1024 10.9833L13.5666 11.3416L11.7833 13.0791L12.2041 15.5341L9.99992 14.3749L7.79575 15.5333L8.21658 13.0791L6.43325 11.3408L8.89742 10.9824L9.99992 8.74994ZM14.9999 1.6666V4.1666L13.8641 5.11494C12.9215 4.62042 11.8925 4.3123 10.8333 4.20744V1.6666H14.9999ZM9.16658 1.66577V4.20744C8.10771 4.31214 7.07894 4.61998 6.13658 5.1141L4.99992 4.1666V1.6666L9.16658 1.66577Z" fill="white"/>
</g>
<defs>
<clipPath id="clip0_12_1594">
<rect width="20" height="20" fill="white"/>
</clipPath>
</defs>
</svg>
